<svg width="418" height="258" viewBox="0 0 418 258" fill="none" xmlns="http://www.w3.org/2000/svg">
<rect x="1.5" y="1.5" width="415" height="254.567" stroke="white" stroke-width="3"/>
<rect x="8.13965" y="13.5977" width="401.721" height="38.2898" fill="#959292" stroke="white"/>
<rect x="376.527" y="18.5527" width="28.376" height="28.376" fill="white"/>
<path d="M387.185 26.2222H393.111V44H389.556V29.7778H387.185V26.2222Z" fill="black"/>
<path d="M160.296 133.259H161.481V132.074H165.037V135.63H163.852V136.815H162.667V138H155.556V136.815H154.37V135.63H153.185V122.593H154.37V121.407H155.556V120.222H162.667V121.407H163.852V122.593H165.037V126.148H161.481V124.963H160.296V123.778H157.926V124.963H156.741V133.259H157.926V134.444H160.296V133.259ZM167.404 120.222H170.959V138H167.404V120.222ZM173.341 132.074H174.527V130.889H175.712V129.704H181.638V128.519H173.341V127.333H174.527V126.148H175.712V124.963H182.823V126.148H184.008V127.333H185.193V138H181.638V136.815H180.453V138H175.712V136.815H174.527V135.63H173.341V132.074ZM176.897 134.444H181.638V132.074H176.897V134.444ZM188.745 135.63H187.56V133.259H191.116V134.444H192.301V135.63H194.671V134.444H195.856V133.259H194.671V132.074H189.931V130.889H188.745V129.704H187.56V127.333H188.745V126.148H189.931V124.963H197.042V126.148H198.227V128.519H194.671V127.333H192.301V128.519H191.116V129.704H197.042V130.889H198.227V132.074H199.412V135.63H198.227V136.815H197.042V138H189.931V136.815H188.745V135.63ZM202.964 135.63H201.779V133.259H205.334V134.444H206.52V135.63H208.89V134.444H210.075V133.259H208.89V132.074H204.149V130.889H202.964V129.704H201.779V127.333H202.964V126.148H204.149V124.963H211.26V126.148H212.446V128.519H208.89V127.333H206.52V128.519H205.334V129.704H211.26V130.889H212.446V132.074H213.631V135.63H212.446V136.815H211.26V138H204.149V136.815H202.964V135.63ZM215.998 120.222H219.553V123.778H215.998V120.222ZM215.998 126.148H219.553V138H215.998V126.148ZM221.935 126.148H224.306V122.593H225.491V121.407H226.676V120.222H231.417V122.593H229.046V123.778H227.861V126.148H231.417V128.519H227.861V138H224.306V128.519H221.935V126.148ZM232.591 120.222H236.147V123.778H232.591V120.222ZM232.591 126.148H236.147V138H232.591V126.148ZM239.714 135.63H238.529V127.333H239.714V126.148H240.899V124.963H248.01V126.148H249.196V127.333H250.381V133.259H242.084V134.444H250.381V135.63H249.196V136.815H248.01V138H240.899V136.815H239.714V135.63ZM242.084 130.889H246.825V128.519H242.084V130.889ZM259.859 133.259H261.044V128.519H256.303V134.444H259.859V133.259ZM264.6 120.222V138H261.044V136.815H259.859V138H255.118V136.815H253.933V135.63H252.748V127.333H253.933V126.148H255.118V124.963H261.044V120.222H264.6Z" fill="white"/>
</svg>
