<svg width="440" height="290" viewBox="0 0 440 290" fill="none" xmlns="http://www.w3.org/2000/svg">
<path d="M56.9634 52.1257H348.532L357.689 40.8227L367.922 26.8099L376.02 21.4275L386.792 12.2774L397.025 5.26172H71.0599L56.9634 52.1257Z" stroke="white" stroke-miterlimit="10"/>
<path d="M438.999 19.0512L436.529 28.7024L433.854 34.92L430.938 40.952L426.704 46.984L423.565 52.1251L417.529 61.0525L411.716 68.4394L404.788 76.6986L400.981 81.8397H382.65L385.77 76.4758L389.8 68.6621L388.017 60.607L387.126 49.6566L385.547 38.7062L376.001 21.4269L397.025 5.26113L408.577 1.84609L415.746 0.509766L421.782 1.84609L430.047 5.26113L437.197 10.792L438.999 19.0512Z" stroke="white" stroke-miterlimit="10"/>
<path d="M58.0405 288.822C57.9662 287.671 57.8548 286.316 58.0962 285.184C58.282 284.349 58.542 283.625 58.6163 282.753C58.802 280.878 58.8206 278.985 58.7091 277.11C58.4863 273.38 57.7248 269.686 56.499 266.178C53.6574 258.142 48.2714 250.941 41.0839 246.282C30.8876 239.693 17.6269 237.837 9.32498 228.984C-0.815581 218.164 0.391629 200.643 6.57626 187.15C12.7609 173.657 22.9757 162.409 29.9404 149.306C36.4222 137.112 39.951 123.601 43.0526 110.163C46.0427 97.1525 56.499 73.7669 68.9611 68.9785L62.9808 76.6066V83.4553L74.9786 88.021L83.8934 89.1532L87.255 96.373L97.9342 96.206L334.362 92.4197L332.17 52.1445H67.0296V60.2738C68.0325 62.8536 69.0911 65.3778 69.6297 67.9948C55.2547 69.628 45.467 78.8153 42.1797 93.2364C36.385 118.552 48.6614 144.017 53.9546 169.425C60.6964 201.775 55.7933 236.427 40.3224 265.64" stroke="white" stroke-width="0.75" stroke-miterlimit="10"/>
<path d="M373.048 102.887L358.506 106.933H321.435L212.211 107.063L200.696 106.747L195.848 112.946L190.295 126.031H186.692L182.773 125.697L174.917 132.898L168.38 134.532L157.589 132.898L139.277 110.311H135.339L129.786 107.397L114.111 107.063L97.9714 96.1866L334.362 92.4004L373.048 102.887Z" stroke="white" stroke-miterlimit="10"/>
<path d="M355.163 98.0427L376.001 98.7294L382.65 81.8398" stroke="white" stroke-miterlimit="10"/>
<path d="M61.6622 289.063C60.585 287.968 59.6378 286.743 58.8206 285.444C58.4863 284.906 58.2634 284.293 58.0777 283.699C57.892 283.105 58.2634 282.418 58.5606 281.825C58.7463 281.472 59.0249 281.119 59.0063 280.711" stroke="white" stroke-width="0.75" stroke-miterlimit="10"/>
<path d="M40.6197 264.822C40.7311 266.103 40.4711 267.402 40.694 268.646C40.954 270.13 41.864 271.411 42.254 272.877C42.3283 273.156 42.3098 273.545 42.0312 273.583" stroke="white" stroke-width="0.75" stroke-miterlimit="10"/>
<path d="M36.2551 270.149C36.0879 269.481 36.3665 268.776 36.8123 268.256C37.258 267.736 37.8337 267.347 38.3723 266.92C39.5424 266.029 40.601 264.952 41.4925 263.783" stroke="white" stroke-width="0.75" stroke-miterlimit="10"/>
<path d="M43.7583 143.441C46.0056 142.847 48.16 141.919 50.1101 140.676" stroke="white" stroke-width="0.75" stroke-miterlimit="10"/>
<path d="M51.1687 166.213C53.3045 166.288 55.4404 165.675 57.2233 164.506" stroke="white" stroke-width="0.75" stroke-miterlimit="10"/>
<path d="M15.7512 165.898C17.5156 167.031 19.2243 168.237 20.8772 169.518" stroke="white" stroke-width="0.75" stroke-miterlimit="10"/>
<path d="M0.0388184 197.32C2.71325 197.599 5.36911 197.951 8.02497 198.36" stroke="white" stroke-width="0.75" stroke-miterlimit="10"/>
<path d="M52.0789 210.943C55.199 210.98 58.3192 211.277 61.4022 211.834" stroke="white" stroke-width="0.75" stroke-miterlimit="10"/>
<path d="M18.3884 241.103C18.4813 240.063 19.0942 239.135 19.6885 238.263C20.84 236.555 22.0658 234.792 23.8859 233.846" stroke="white" stroke-width="0.75" stroke-miterlimit="10"/>
<path d="M356.224 71.9542H357.409V70.769H358.594V69.5838H359.78V68.3987H360.965V67.2135H362.15V66.0283H363.335V64.8431H364.52V62.4727H363.335V61.2875H360.965V62.4727H359.78V63.6579H356.224V60.1024H357.409V58.9172H358.594V57.732H365.705V58.9172H366.891V60.1024H368.076V66.0283H366.891V67.2135H365.705V68.3987H364.52V69.5838H363.335V70.769H362.15V71.9542H368.076V75.5098H356.224V71.9542Z" fill="white"/>
</svg>
