<svg width="418" height="258" viewBox="0 0 418 258" fill="none" xmlns="http://www.w3.org/2000/svg">
<rect x="1.5" y="1.5" width="415" height="254.567" stroke="white" stroke-width="3"/>
<rect x="8.13965" y="13.5977" width="401.721" height="38.2898" fill="#959292" stroke="white"/>
<rect x="376.527" y="18.5527" width="28.376" height="28.376" fill="white"/>
<path d="M387.185 26.2222H393.111V44H389.556V29.7778H387.185V26.2222Z" fill="black"/>
<path d="M156.741 134.444H162.667V138H153.185V120.222H156.741V134.444ZM168.584 134.444H173.325V128.519H168.584V134.444ZM166.214 135.63H165.029V127.333H166.214V126.148H167.399V124.963H174.51V126.148H175.696V127.333H176.881V135.63H175.696V136.815H174.51V138H167.399V136.815H166.214V135.63ZM179.248 132.074H180.433V130.889H181.618V129.704H187.544V128.519H179.248V127.333H180.433V126.148H181.618V124.963H188.729V126.148H189.914V127.333H191.1V138H187.544V136.815H186.359V138H181.618V136.815H180.433V135.63H179.248V132.074ZM182.803 134.444H187.544V132.074H182.803V134.444ZM200.578 133.259H201.763V128.519H197.022V134.444H200.578V133.259ZM205.318 120.222V138H201.763V136.815H200.578V138H195.837V136.815H194.652V135.63H193.466V127.333H194.652V126.148H195.837V124.963H201.763V120.222H205.318ZM207.685 120.222H211.241V123.778H207.685V120.222ZM207.685 126.148H211.241V138H207.685V126.148ZM217.178 126.148H218.363V124.963H223.104V126.148H224.289V127.333H225.475V138H221.919V128.519H218.363V129.704H217.178V138H213.623V124.963H217.178V126.148ZM227.841 138H231.397V139.185H232.582V140.37H234.953V139.185H236.138V135.63H234.953V136.815H230.212V135.63H229.027V134.444H227.841V127.333H229.027V126.148H230.212V124.963H239.693V140.37H238.508V141.556H237.323V142.741H230.212V141.556H229.027V140.37H227.841V138ZM231.397 133.259H236.138V128.519H231.397V133.259ZM242.06 134.444H245.616V138H242.06V134.444ZM247.998 134.444H251.553V138H247.998V134.444ZM253.935 134.444H257.491V138H253.935V134.444Z" fill="white"/>
</svg>
