<?xml version="1.0" encoding="UTF-8"?>
<svg id="Layer_1" xmlns="http://www.w3.org/2000/svg" version="1.1" viewBox="0 0 439 345">
  <!-- Generator: Adobe Illustrator 30.2.0, SVG Export Plug-In . SVG Version: 2.1.1 Build 105)  -->
  <defs>
    <style>
      .st0 {
        fill: #03ffff;
      }

      .st1, .st2, .st3 {
        stroke: #03ffff;
        stroke-miterlimit: 10;
      }

      .st2 {
        stroke-width: .8px;
      }

      .st2, .st3 {
        fill: none;
      }
    </style>
  </defs>
  <path class="st3" d="M48.5,176.2l232.6-103,3-11.7,2.9-14.1,4.4-6.9,5.1-10.6,5.5-8.9L42.1,136.3l6.5,40Z"/>
  <path class="st3" d="M340.8,16.5l1.7,8.1.2,5.6v5.5s-1.1,6-1.1,6l-.6,4.9-1.4,8.8-1.8,7.6-2.4,8.6-1.1,5.2-14.6,6.5.5-5.1.3-7.3-4.5-5.4-4.8-7.9-5.4-7.6-14.1-9.5,10.7-19.5,7.9-6.6,5.2-3.5,5.3-1.1,7.9-.4,7.8,1.6,4.6,5.5Z"/>
  <path class="st2" d="M138.8,352.5c-.5-.8-1.1-1.8-1.3-2.7-.2-.7-.2-1.3-.5-2-.6-1.5-1.3-2.9-2.1-4.2-1.6-2.7-3.6-5.2-5.9-7.4-5.3-5-12.3-8.5-19.8-9.4-10.6-1.3-21.9,2-31.9-1.7-12.2-4.5-17.8-18-18-30.3-.2-12.3,3.7-24.3,4.3-36.5.6-11.4-1.7-22.7-4.3-33.9-2.5-10.8-3-31.9,5.1-39.9l-1.9,7.8,2.6,5.1,11.3-.8,7.5-2.3,5.4,4.2,8.5-3.9,187.2-86.4-17-29.3L56.6,172.7l3.1,6.1c1.8,1.6,3.6,3.1,5,4.8-10.9,6.3-15.2,16.6-12.4,28.5,4.9,20.9,24.4,35.6,38.2,52.7,17.6,21.8,26.8,49.4,25.5,76.6"/>
  <path class="st1" d="M319.9,102.4l-10.1,8.2-29.6,13.1-87.1,38.7-9.3,3.8-1.5,6.3.5,11.7-2.9,1.3-3.3,1.1-3.5,8.2-4.6,3.5-9.2,2.6-23.1-10.4-3.1,1.4-5.5-.2-12.6,5.3-17-2.4,187.2-86.4,34.8-5.8Z"/>
  <path class="st3" d="M303.8,105.1l16.9-6.9-1.1-15"/>
  <path class="st2" d="M56,237.4c1.6-1.2,2.9-2.7,4-4.3"/>
  <path class="st2" d="M70.5,251.7c1.7-.7,3.2-1.9,4.2-3.4"/>
  <path class="st2" d="M44.4,299.4c2.1.3,4.1.6,6.2,1"/>
  <path class="st2" d="M43.6,332.3c2.5-.8,5.1-1.6,7.7-2.3"/>
  <path class="st2" d="M104.6,296.5c2.5-1.1,5.1-2,7.8-2.6"/>
  <path class="st0" d="M296.5,85.6l1-.4-.5-.9,1-.4-.5-.9,1-.4-.5-.9,1-.4-.5-.9,1-.4-.5-.9,1-.4-.5-.9,1-.4-.9-1.9-1,.4-.5-.9-1.9.8.5.9-1,.4.5.9-2.9,1.3-1.4-2.8,1-.4-.5-.9,1-.4-.5-.9,5.7-2.5.5.9,1-.4.5.9,1-.4,2.4,4.7-1,.4.5.9-1,.4.5.9-1,.4.5.9-1,.4.5.9-1,.4.5.9,4.8-2.1,1.4,2.8-9.6,4.2-1.4-2.8Z"/>
</svg>